<?xml version="1.0" encoding="utf-8"?>
<!-- Generator: Adobe Illustrator 17.0.0, SVG Export Plug-In . SVG Version: 6.00 Build 0)  -->
<!DOCTYPE svg PUBLIC "-//W3C//DTD SVG 1.1//EN" "http://www.w3.org/Graphics/SVG/1.1/DTD/svg11.dtd">
<svg version="1.1" id="图层_1" xmlns="http://www.w3.org/2000/svg" xmlns:xlink="http://www.w3.org/1999/xlink" x="0px" y="0px"
	 width="1076px" height="1080px" viewBox="0 0 1076 1080" enable-background="new 0 0 1076 1080" xml:space="preserve">
<path fill="#fff" d="M950.083,692.522L950.083,692.522h-31.625H809.436H765.25l-0.022,0.024c-6.287,0.05-11.693,3.782-14.173,9.146
	c-0.064,0.101-0.124,0.206-0.174,0.321c-11.572,26.32-25.933,50.41-42.895,71.905c-23.27,29.488-50.229,52.564-80.126,68.588
	c-4.627,2.48-9.296,4.771-14.004,6.878c-4.708-2.107-9.377-4.398-14.004-6.878c-29.897-16.024-56.855-39.1-80.126-68.588
	c-23.622-29.934-42.204-64.895-55.227-103.913c-13.582-40.691-20.469-83.97-20.469-128.634s6.887-87.943,20.469-128.634
	c13.023-39.018,31.605-73.979,55.227-103.913c23.27-29.488,50.228-52.564,80.126-68.588c4.627-2.48,9.296-4.771,14.004-6.878
	c4.708,2.107,9.377,4.398,14.004,6.878c29.897,16.024,56.855,39.1,80.126,68.588c18.19,23.05,33.387,49.083,45.363,77.652
	c0.041,0.097,0.09,0.185,0.146,0.264c2.468,5.473,7.967,9.284,14.361,9.284c0.097,0,0.193-0.006,0.29-0.007l0.002,0.007h184.383
	l0.001-0.01c8.665-0.039,15.678-7.074,15.678-15.748c0-1.785-0.301-3.498-0.848-5.097c-0.048-0.194-0.115-0.401-0.202-0.623
	c-14.198-35.886-32.827-68.547-55.546-97.336c-27.639-35.024-59.965-62.597-96.078-81.953
	c-37.918-20.323-78.272-30.628-119.942-30.628c-27.95,0-55.307,4.644-81.736,13.83c-24.071-8.367-48.914-12.948-74.272-13.702
	v-0.125c-0.073,0.003-0.147,0.006-0.222,0.006v-0.01H404.99H224.784l-0.431,701.828l-130.732,0.427
	c-12.76,0-21.913,2.457-27.435,7.333c-5.535,4.898-8.546,8.755-8.546,16.828c0,7.656,2.764,14.036,8.296,19.139
	c5.523,5.111,14.675,7.657,27.436,7.657h127.912h34.404H404.99h2.238h132.133v-0.01c0.075,0,0.149,0.003,0.222,0.006l-0.06,0.155
	c25.379-0.748,50.242-5.335,74.332-13.708c26.429,9.186,53.786,13.83,81.736,13.83c41.669,0,82.024-10.304,119.942-30.628
	c36.114-19.356,68.439-46.929,96.078-81.953c21.431-27.157,39.22-57.76,53.086-91.264c0.121-0.292,0.204-0.562,0.26-0.814
	c0.565-1.623,0.876-3.365,0.876-5.181C965.833,699.573,958.782,692.522,950.083,692.522z M689.279,215.771v-0.003
	c2.1-0.069,4.204-0.108,6.312-0.108c33.166,0,65.41,8.268,95.834,24.574c29.897,16.024,56.856,39.1,80.125,68.588
	c9.004,11.409,17.272,23.55,24.782,36.366H790.637c-11.992-24.507-26.23-47.248-42.591-67.981
	c-17.738-22.477-37.406-41.883-58.767-58.02v-0.071c-1.416-1.069-2.839-2.124-4.27-3.164
	C686.43,215.876,687.854,215.818,689.279,215.771z M539.583,866.919v-0.147h-101.25v-0.113h-31.105v0H275.599l-0.386-650.851
	h207.121v-0.036h56.115c1.419,0.047,2.837,0.104,4.253,0.181c-1.431,1.04-2.854,2.095-4.27,3.164v0.071
	c-21.36,16.137-41.029,35.543-58.767,58.02c-27.288,34.579-48.677,74.74-63.573,119.37c-15.324,45.91-23.094,94.625-23.094,144.792
	s7.77,98.882,23.094,144.792c14.896,44.63,36.286,84.792,63.573,119.37c17.738,22.477,37.406,41.883,58.767,58.02v0.071
	c1.416,1.069,2.839,2.124,4.27,3.164C541.664,866.842,540.623,866.881,539.583,866.919z M871.55,773.917
	c-23.27,29.488-50.228,52.564-80.125,68.588c-30.424,16.306-62.667,24.574-95.834,24.574c-2.108,0-4.212-0.04-6.312-0.108v-0.003
	c-1.425-0.047-2.849-0.105-4.27-0.182c1.431-1.04,2.854-2.095,4.27-3.164v-0.071c21.36-16.137,41.029-35.543,58.767-58.02
	c15.024-19.038,28.256-39.773,39.605-62.01h105.097C886.213,754.151,879.144,764.295,871.55,773.917z"/>
</svg>
